{
  "accessors": [
    {
      "bufferView": 2,
      "componentType": 5126,
      "count": 14107,
      "max": [
        110.12002563476562,
        315.68930053710938,
        193.92735290527344
      ],
      "min": [
        -110.12002563476562,
        -243.1182861328125,
        39.044589996337891
      ],
      "type": "VEC3"
    },
    {
      "bufferView": 2,
      "byteOffset": 169284,
      "componentType": 5126,
      "count": 14107,
      "max": [
        1,
        0.99985945224761963,
        0.99986028671264648
      ],
      "min": [
        -1,
        -0.99986004829406738,
        -0.99985992908477783
      ],
      "type": "VEC3"
    },
    {
      "bufferView": 3,
      "componentType": 5126,
      "count": 14107,
      "max": [
        1,
        0.99989944696426392,
        0.99993371963500977,
        1
      ],
      "min": [
        -1,
        -0.99999517202377319,
        -0.99990034103393555,
        -1
      ],
      "type": "VEC4"
    },
    {
      "bufferView": 1,
      "componentType": 5126,
      "count": 14107,
      "max": [
        0.99766182899475098,
        0.99753224849700928
      ],
      "min": [
        -0.9975319504737854,
        0.0101223299279809
      ],
      "type": "VEC2"
    },
    {
      "bufferView": 0,
      "componentType": 5125,
      "count": 55767,
      "max": [
        14106
      ],
      "min": [
        0
      ],
      "type": "SCALAR"
    },
    {
      "bufferView": 2,
      "byteOffset": 338568,
      "componentType": 5126,
      "count": 1205,
      "max": [
        119.18759155273438,
        335.54638671875,
        275.2293701171875
      ],
      "min": [
        -119.18746948242188,
        -334.65036010742188,
        82.5299072265625
      ],
      "type": "VEC3"
    },
    {
      "bufferView": 2,
      "byteOffset": 353028,
      "componentType": 5126,
      "count": 1205,
      "max": [
        0.99983048439025879,
        0.97051429748535156,
        1
      ],
      "min": [
        -0.99983048439025879,
        -0.99987798929214478,
        -0.9999995231628418
      ],
      "type": "VEC3"
    },
    {
      "bufferView": 3,
      "byteOffset": 225712,
      "componentType": 5126,
      "count": 1205,
      "max": [
        1,
        0.99999988079071045,
        0.99709296226501465,
        1
      ],
      "min": [
        -1,
        -0.99873578548431396,
        -0.99995571374893188,
        -1
      ],
      "type": "VEC4"
    },
    {
      "bufferView": 1,
      "byteOffset": 112856,
      "componentType": 5126,
      "count": 1205,
      "max": [
        0.99198031425476074,
        0.99397552013397217
      ],
      "min": [
        0.0080533884465694427,
        0.0085547622293233871
      ],
      "type": "VEC2"
    },
    {
      "bufferView": 0,
      "byteOffset": 223068,
      "componentType": 5125,
      "count": 4809,
      "max": [
        1204
      ],
      "min": [
        0
      ],
      "type": "SCALAR"
    },
    {
      "bufferView": 2,
      "byteOffset": 367488,
      "componentType": 5126,
      "count": 1976,
      "max": [
        120.35623168945312,
        335.54638671875,
        277.08163452148438
      ],
      "min": [
        -120.35610961914062,
        -335.25689697265625,
        82.722808837890625
      ],
      "type": "VEC3"
    },
    {
      "bufferView": 2,
      "byteOffset": 391200,
      "componentType": 5126,
      "count": 1976,
      "max": [
        0.99999535083770752,
        0.99988257884979248,
        0.99999535083770752
      ],
      "min": [
        -1,
        -0.99774456024169922,
        -0.99977165460586548
      ],
      "type": "VEC3"
    },
    {
      "bufferView": 3,
      "byteOffset": 244992,
      "componentType": 5126,
      "count": 1976,
      "max": [
        1,
        0.99884343147277832,
        0.99980247020721436,
        1
      ],
      "min": [
        -1,
        -0.99997997283935547,
        -0.99563813209533691,
        -1
      ],
      "type": "VEC4"
    },
    {
      "bufferView": 1,
      "byteOffset": 122496,
      "componentType": 5126,
      "count": 1976,
      "max": [
        0.99005353450775146,
        0.99444794654846191
      ],
      "min": [
        -0.97173720598220825,
        0.0075643709860742092
      ],
      "type": "VEC2"
    },
    {
      "bufferView": 0,
      "byteOffset": 242304,
      "componentType": 5125,
      "count": 7899,
      "max": [
        1975
      ],
      "min": [
        0
      ],
      "type": "SCALAR"
    },
    {
      "bufferView": 2,
      "byteOffset": 414912,
      "componentType": 5126,
      "count": 5930,
      "max": [
        116.33395385742188,
        368.887939453125,
        221.68327331542969
      ],
      "min": [
        -116.33413696289062,
        -368.887939453125,
        69.347213745117188
      ],
      "type": "VEC3"
    },
    {
      "bufferView": 2,
      "byteOffset": 486072,
      "componentType": 5126,
      "count": 5930,
      "max": [
        1,
        1,
        1
      ],
      "min": [
        -1,
        -1,
        -1
      ],
      "type": "VEC3"
    },
    {
      "bufferView": 3,
      "byteOffset": 276608,
      "componentType": 5126,
      "count": 5930,
      "max": [
        1,
        1,
        1,
        1
      ],
      "min": [
        -1,
        -1,
        -1,
        -1
      ],
      "type": "VEC4"
    },
    {
      "bufferView": 1,
      "byteOffset": 138304,
      "componentType": 5126,
      "count": 5930,
      "max": [
        0.99739944934844971,
        0.99607455730438232
      ],
      "min": [
        -0.99466031789779663,
        0.002101716585457325
      ],
      "type": "VEC2"
    },
    {
      "bufferView": 0,
      "byteOffset": 273900,
      "componentType": 5125,
      "count": 22110,
      "max": [
        5929
      ],
      "min": [
        0
      ],
      "type": "SCALAR"
    },
    {
      "bufferView": 2,
      "byteOffset": 557232,
      "componentType": 5126,
      "count": 136,
      "max": [
        100.24612426757812,
        297.5892333984375,
        183.67303466796875
      ],
      "min": [
        -100.24606323242188,
        -331.02633666992188,
        113.04058837890625
      ],
      "type": "VEC3"
    },
    {
      "bufferView": 2,
      "byteOffset": 558864,
      "componentType": 5126,
      "count": 136,
      "max": [
        0.40213295817375183,
        1,
        0.429881751537323
      ],
      "min": [
        -0.40213289856910706,
        -1,
        -0.4299551248550415
      ],
      "type": "VEC3"
    },
    {
      "bufferView": 1,
      "byteOffset": 185744,
      "componentType": 5126,
      "count": 136,
      "max": [
        0.65685808658599854,
        0.46975180506706238
      ],
      "min": [
        0.21737539768218994,
        0.33537739515304565
      ],
      "type": "VEC2"
    },
    {
      "bufferView": 0,
      "byteOffset": 362340,
      "componentType": 5125,
      "count": 492,
      "max": [
        135
      ],
      "min": [
        0
      ],
      "type": "SCALAR"
    },
    {
      "bufferView": 2,
      "byteOffset": 560496,
      "componentType": 5126,
      "count": 530,
      "max": [
        101.83004760742188,
        306.48562622070312,
        249.34457397460938
      ],
      "min": [
        -101.83004760742188,
        -335.39804077148438,
        111.45001220703125
      ],
      "type": "VEC3"
    },
    {
      "bufferView": 2,
      "byteOffset": 566856,
      "componentType": 5126,
      "count": 530,
      "max": [
        0.99992454051971436,
        1,
        0.99970275163650513
      ],
      "min": [
        -0.99992454051971436,
        -1,
        -0.99970275163650513
      ],
      "type": "VEC3"
    },
    {
      "bufferView": 3,
      "byteOffset": 371488,
      "componentType": 5126,
      "count": 530,
      "max": [
        1,
        0.86028116941452026,
        1,
        1
      ],
      "min": [
        -1,
        -0.99998998641967773,
        -1,
        -1
      ],
      "type": "VEC4"
    },
    {
      "bufferView": 1,
      "byteOffset": 186832,
      "componentType": 5126,
      "count": 530,
      "max": [
        0.9933740496635437,
        0.99273133277893066
      ],
      "min": [
        -0.99270379543304443,
        0.39252319931983948
      ],
      "type": "VEC2"
    },
    {
      "bufferView": 0,
      "byteOffset": 364308,
      "componentType": 5125,
      "count": 2148,
      "max": [
        529
      ],
      "min": [
        0
      ],
      "type": "SCALAR"
    }
  ],
  "asset": {
    "extras": {
      "author": "Anton Sereda (https://sketchfab.com/antonsereda)",
      "license": "CC-BY-4.0 (http://creativecommons.org/licenses/by/4.0/)",
      "source": "https://sketchfab.com/3d-models/vehicle-zis-101-64681d43998343cfb8dfb666634e8689",
      "title": "Vehicle ZIS-101"
    },
    "generator": "Sketchfab-8.55.0",
    "version": "2.0"
  },
  "bufferViews": [
    {
      "buffer": 0,
      "byteLength": 372900,
      "byteOffset": 0,
      "name": "floatBufferViews",
      "target": 34963
    },
    {
      "buffer": 0,
      "byteLength": 191072,
      "byteOffset": 372900,
      "byteStride": 8,
      "name": "floatBufferViews",
      "target": 34962
    },
    {
      "buffer": 0,
      "byteLength": 573216,
      "byteOffset": 563972,
      "byteStride": 12,
      "name": "floatBufferViews",
      "target": 34962
    },
    {
      "buffer": 0,
      "byteLength": 379968,
      "byteOffset": 1137188,
      "byteStride": 16,
      "name": "floatBufferViews",
      "target": 34962
    }
  ],
  "buffers": [
    {
      "byteLength": 1517156,
      "uri": "scene.bin"
    }
  ],
  "images": [
    {
      "uri": "textures/wheels_baseColor.png"
    },
    {
      "uri": "textures/wheels_metallicRoughness.png"
    },
    {
      "uri": "textures/wheels_normal.png"
    },
    {
      "uri": "textures/interior_baseColor.png"
    },
    {
      "uri": "textures/interior_metallicRoughness.png"
    },
    {
      "uri": "textures/interior_normal.png"
    },
    {
      "uri": "textures/base_baseColor.png"
    },
    {
      "uri": "textures/base_metallicRoughness.png"
    },
    {
      "uri": "textures/base_normal.png"
    },
    {
      "uri": "textures/details_baseColor.png"
    },
    {
      "uri": "textures/details_metallicRoughness.png"
    },
    {
      "uri": "textures/details_normal.png"
    },
    {
      "uri": "textures/light_map_baseColor.png"
    },
    {
      "uri": "textures/light_map_metallicRoughness.png"
    },
    {
      "uri": "textures/light_map_emissive.png"
    },
    {
      "uri": "textures/glass_baseColor.png"
    },
    {
      "uri": "textures/glass_metallicRoughness.png"
    },
    {
      "uri": "textures/glass_normal.png"
    }
  ],
  "materials": [
    {
      "doubleSided": true,
      "emissiveFactor": [
        0,
        0,
        0
      ],
      "name": "wheels",
      "normalTexture": {
        "index": 2,
        "scale": 1,
        "texCoord": 0
      },
      "occlusionTexture": {
        "index": 1,
        "strength": 1,
        "texCoord": 0
      },
      "pbrMetallicRoughness": {
        "baseColorFactor": [
          1,
          1,
          1,
          1
        ],
        "baseColorTexture": {
          "index": 0,
          "texCoord": 0
        },
        "metallicFactor": 1,
        "metallicRoughnessTexture": {
          "index": 1,
          "texCoord": 0
        },
        "roughnessFactor": 1
      }
    },
    {
      "doubleSided": true,
      "emissiveFactor": [
        0,
        0,
        0
      ],
      "name": "interior",
      "normalTexture": {
        "index": 5,
        "scale": 1,
        "texCoord": 0
      },
      "occlusionTexture": {
        "index": 4,
        "strength": 1,
        "texCoord": 0
      },
      "pbrMetallicRoughness": {
        "baseColorFactor": [
          1,
          1,
          1,
          1
        ],
        "baseColorTexture": {
          "index": 3,
          "texCoord": 0
        },
        "metallicFactor": 1,
        "metallicRoughnessTexture": {
          "index": 4,
          "texCoord": 0
        },
        "roughnessFactor": 1
      }
    },
    {
      "doubleSided": true,
      "emissiveFactor": [
        0,
        0,
        0
      ],
      "name": "base",
      "normalTexture": {
        "index": 8,
        "scale": 1,
        "texCoord": 0
      },
      "occlusionTexture": {
        "index": 7,
        "strength": 1,
        "texCoord": 0
      },
      "pbrMetallicRoughness": {
        "baseColorFactor": [
          1,
          1,
          1,
          1
        ],
        "baseColorTexture": {
          "index": 6,
          "texCoord": 0
        },
        "metallicFactor": 1,
        "metallicRoughnessTexture": {
          "index": 7,
          "texCoord": 0
        },
        "roughnessFactor": 1
      }
    },
    {
      "doubleSided": true,
      "emissiveFactor": [
        0,
        0,
        0
      ],
      "name": "details",
      "normalTexture": {
        "index": 11,
        "scale": 1,
        "texCoord": 0
      },
      "occlusionTexture": {
        "index": 10,
        "strength": 1,
        "texCoord": 0
      },
      "pbrMetallicRoughness": {
        "baseColorFactor": [
          1,
          1,
          1,
          1
        ],
        "baseColorTexture": {
          "index": 9,
          "texCoord": 0
        },
        "metallicFactor": 1,
        "metallicRoughnessTexture": {
          "index": 10,
          "texCoord": 0
        },
        "roughnessFactor": 1
      }
    },
    {
      "alphaMode": "BLEND",
      "doubleSided": true,
      "emissiveFactor": [
        1,
        1,
        1
      ],
      "emissiveTexture": {
        "index": 14,
        "texCoord": 0
      },
      "name": "light_map",
      "pbrMetallicRoughness": {
        "baseColorFactor": [
          1,
          1,
          1,
          1
        ],
        "baseColorTexture": {
          "index": 12,
          "texCoord": 0
        },
        "metallicFactor": 1,
        "metallicRoughnessTexture": {
          "index": 13,
          "texCoord": 0
        },
        "roughnessFactor": 1
      }
    },
    {
      "alphaMode": "BLEND",
      "doubleSided": true,
      "emissiveFactor": [
        0,
        0,
        0
      ],
      "name": "glass",
      "normalTexture": {
        "index": 17,
        "scale": 1,
        "texCoord": 0
      },
      "pbrMetallicRoughness": {
        "baseColorFactor": [
          1,
          1,
          1,
          0.88333515738528234
        ],
        "baseColorTexture": {
          "index": 15,
          "texCoord": 0
        },
        "metallicFactor": 1,
        "metallicRoughnessTexture": {
          "index": 16,
          "texCoord": 0
        },
        "roughnessFactor": 1
      }
    }
  ],
  "meshes": [
    {
      "name": "wheels_low_wheels_0",
      "primitives": [
        {
          "attributes": {
            "NORMAL": 1,
            "POSITION": 0,
            "TANGENT": 2,
            "TEXCOORD_0": 3
          },
          "indices": 4,
          "material": 0,
          "mode": 4
        }
      ]
    },
    {
      "name": "interior_low_interior_0",
      "primitives": [
        {
          "attributes": {
            "NORMAL": 6,
            "POSITION": 5,
            "TANGENT": 7,
            "TEXCOORD_0": 8
          },
          "indices": 9,
          "material": 1,
          "mode": 4
        }
      ]
    },
    {
      "name": "base_low_base_0",
      "primitives": [
        {
          "attributes": {
            "NORMAL": 11,
            "POSITION": 10,
            "TANGENT": 12,
            "TEXCOORD_0": 13
          },
          "indices": 14,
          "material": 2,
          "mode": 4
        }
      ]
    },
    {
      "name": "details_low_details_0",
      "primitives": [
        {
          "attributes": {
            "NORMAL": 16,
            "POSITION": 15,
            "TANGENT": 17,
            "TEXCOORD_0": 18
          },
          "indices": 19,
          "material": 3,
          "mode": 4
        }
      ]
    },
    {
      "name": "light_map_low_light_map_0",
      "primitives": [
        {
          "attributes": {
            "NORMAL": 21,
            "POSITION": 20,
            "TEXCOORD_0": 22
          },
          "indices": 23,
          "material": 4,
          "mode": 4
        }
      ]
    },
    {
      "name": "glass_low_glass_0",
      "primitives": [
        {
          "attributes": {
            "NORMAL": 25,
            "POSITION": 24,
            "TANGENT": 26,
            "TEXCOORD_0": 27
          },
          "indices": 28,
          "material": 5,
          "mode": 4
        }
      ]
    }
  ],
  "nodes": [
    {
      "children": [
        1
      ],
      "name": "RootNode (gltf orientation matrix)",
      "rotation": [
        -0.70710678118654746,
        -0,
        -0,
        0.70710678118654757
      ]
    },
    {
      "children": [
        2
      ],
      "matrix": [
        0.0079438220709562302,
        0,
        0,
        0,
        0,
        0.0079438220709562302,
        0,
        0,
        0,
        0,
        0.0079438220709562302,
        0,
        0,
        0,
        0,
        1
      ],
      "name": "RootNode (model correction matrix)"
    },
    {
      "children": [
        3
      ],
      "matrix": [
        1,
        0,
        0,
        0,
        0,
        0,
        1,
        0,
        0,
        -1,
        0,
        0,
        0,
        0,
        0,
        1
      ],
      "name": "f3e73824915e4b71a50c2b2915092b30.fbx"
    },
    {
      "children": [
        4,
        6,
        8,
        10,
        12,
        14
      ],
      "name": "RootNode"
    },
    {
      "children": [
        5
      ],
      "matrix": [
        1,
        0,
        0,
        0,
        0,
        2.2204460492503131e-16,
        -1,
        0,
        0,
        1,
        2.2204460492503131e-16,
        0,
        0,
        -39.044589996337891,
        -53.87451171875,
        1
      ],
      "name": "wheels_low"
    },
    {
      "mesh": 0,
      "name": "wheels_low_wheels_0"
    },
    {
      "children": [
        7
      ],
      "matrix": [
        1,
        0,
        0,
        0,
        0,
        2.2204460492503131e-16,
        -1,
        0,
        0,
        1,
        2.2204460492503131e-16,
        0,
        0,
        -39.044589996337891,
        -53.87451171875,
        1
      ],
      "name": "interior_low"
    },
    {
      "mesh": 1,
      "name": "interior_low_interior_0"
    },
    {
      "children": [
        9
      ],
      "matrix": [
        1,
        0,
        0,
        0,
        0,
        2.2204460492503131e-16,
        -1,
        0,
        0,
        1,
        2.2204460492503131e-16,
        0,
        0,
        -39.044589996337891,
        -53.87451171875,
        1
      ],
      "name": "base_low"
    },
    {
      "mesh": 2,
      "name": "base_low_base_0"
    },
    {
      "children": [
        11
      ],
      "matrix": [
        1,
        0,
        0,
        0,
        0,
        2.2204460492503131e-16,
        -1,
        0,
        0,
        1,
        2.2204460492503131e-16,
        0,
        0,
        -39.044589996337891,
        -53.87451171875,
        1
      ],
      "name": "details_low"
    },
    {
      "mesh": 3,
      "name": "details_low_details_0"
    },
    {
      "children": [
        13
      ],
      "matrix": [
        1,
        0,
        0,
        0,
        0,
        2.2204460492503131e-16,
        -1,
        0,
        0,
        1,
        2.2204460492503131e-16,
        0,
        0,
        -39.044589996337891,
        -53.87451171875,
        1
      ],
      "name": "light_map_low"
    },
    {
      "mesh": 4,
      "name": "light_map_low_light_map_0"
    },
    {
      "children": [
        15
      ],
      "matrix": [
        1,
        0,
        0,
        0,
        0,
        2.2204460492503131e-16,
        -1,
        0,
        0,
        1,
        2.2204460492503131e-16,
        0,
        0,
        -39.044589996337891,
        -53.87451171875,
        1
      ],
      "name": "glass_low"
    },
    {
      "mesh": 5,
      "name": "glass_low_glass_0"
    }
  ],
  "samplers": [
    {
      "magFilter": 9729,
      "minFilter": 9987,
      "wrapS": 10497,
      "wrapT": 10497
    }
  ],
  "scene": 0,
  "scenes": [
    {
      "name": "OSG_Scene",
      "nodes": [
        0
      ]
    }
  ],
  "textures": [
    {
      "sampler": 0,
      "source": 0
    },
    {
      "sampler": 0,
      "source": 1
    },
    {
      "sampler": 0,
      "source": 2
    },
    {
      "sampler": 0,
      "source": 3
    },
    {
      "sampler": 0,
      "source": 4
    },
    {
      "sampler": 0,
      "source": 5
    },
    {
      "sampler": 0,
      "source": 6
    },
    {
      "sampler": 0,
      "source": 7
    },
    {
      "sampler": 0,
      "source": 8
    },
    {
      "sampler": 0,
      "source": 9
    },
    {
      "sampler": 0,
      "source": 10
    },
    {
      "sampler": 0,
      "source": 11
    },
    {
      "sampler": 0,
      "source": 12
    },
    {
      "sampler": 0,
      "source": 13
    },
    {
      "sampler": 0,
      "source": 14
    },
    {
      "sampler": 0,
      "source": 15
    },
    {
      "sampler": 0,
      "source": 16
    },
    {
      "sampler": 0,
      "source": 17
    }
  ]
}

